<svg width="52" height="58" viewBox="0 0 52 58" fill="none" xmlns="http://www.w3.org/2000/svg">
<g id="Icon">
<g id="Icon_2">
<path id="Vector" d="M25.6637 7.81484V1.6499" stroke="#1C1F35" stroke-width="2" stroke-linecap="round" stroke-linejoin="round"/>
<path id="Vector_2" d="M50.3234 36.5846C46.5731 49.6851 29.2085 54.2574 26.126 54.9767C25.8226 55.0539 25.5047 55.0539 25.2013 54.9767C22.1188 54.2574 4.75424 49.6851 1.00391 36.5846V27.7996C1.00387 27.3669 1.14043 26.9452 1.39411 26.5946C1.6478 26.2441 2.00566 25.9826 2.4167 25.8474L25.0215 18.2953C25.4399 18.1665 25.8874 18.1665 26.3058 18.2953L48.9106 25.8474C49.3217 25.9826 49.6795 26.2441 49.9332 26.5946C50.1869 26.9452 50.3235 27.3669 50.3234 27.7996V36.5846Z" stroke="#1C1F35" stroke-width="2" stroke-linecap="round" stroke-linejoin="round"/>
<path id="Vector_3" d="M26.1315 48.3151C23.6927 47.7535 9.95404 44.184 6.98682 33.9565" stroke="#1C1F35" stroke-width="2" stroke-linecap="round" stroke-linejoin="round"/>
<path id="Vector 1" d="M6.98682 10.6323V23.7856L25.5332 17.2047L44.0796 23.7856V10.6323C44.0796 8.97547 42.7365 7.63232 41.0796 7.63232H9.98682C8.32996 7.63232 6.98682 8.97547 6.98682 10.6323Z" fill="#FABA20" stroke="#1C1F35" stroke-width="2"/>
<path id="Vector_4" d="M25.6637 38.6397V18.1926" stroke="#1C1F35" stroke-width="2" stroke-linecap="round" stroke-linejoin="round"/>
<path id="Vector_5" d="M30.9176 37.5462L30.9176 29.1704" stroke="#1C1F35" stroke-width="2" stroke-linecap="round" stroke-linejoin="round"/>
<path id="Vector_6" d="M11.7728 18.4012V12.4185" stroke="#1C1F35" stroke-width="2" stroke-linecap="round" stroke-linejoin="round"/>
<path id="Vector_7" d="M48.8656 20.7945V10.0256" stroke="#1C1F35" stroke-width="2" stroke-linecap="round" stroke-linejoin="round"/>
</g>
</g>
</svg>
