<svg width="56" height="58" viewBox="0 0 56 58" fill="none" xmlns="http://www.w3.org/2000/svg">
<g id="Icon">
<g id="Icon_2">
<g id="Icon_3">
<path id="Vector" d="M24.8276 28.8958C32.3513 28.8958 38.4505 22.7966 38.4505 15.2729C38.4505 7.74911 32.3513 1.6499 24.8276 1.6499C17.3038 1.6499 11.2046 7.74911 11.2046 15.2729C11.2046 22.7966 17.3038 28.8958 24.8276 28.8958Z" fill="#FABA20" stroke="#1C1F35" stroke-width="2" stroke-linecap="round" stroke-linejoin="round"/>
<path id="Vector_2" d="M5.3468 37.9779C7.73367 35.1331 10.7146 32.8455 14.0802 31.2761C17.4457 29.7066 21.1141 28.8933 24.8276 28.8933C28.5411 28.8933 32.2096 29.7066 35.5751 31.2761C38.9406 32.8455 41.9216 35.1331 44.3085 37.9779" stroke="#1C1F35" stroke-width="2" stroke-linecap="round" stroke-linejoin="round"/>
<g id="Group 2473">
<path id="Rectangle 19" d="M51.8921 39.1128L41.6749 39.1128L41.6749 20.9489L51.8921 20.9489L51.8921 39.1128Z" fill="white" stroke="#141414" stroke-linecap="round" stroke-linejoin="round"/>
<path id="Rectangle 20" d="M51.8921 27.7605L41.6749 27.7605L41.6749 20.949L51.8921 20.949L51.8921 27.7605Z" fill="#FABA20" stroke="black" stroke-linecap="round" stroke-linejoin="round"/>
<path id="Vector_3" d="M48.4863 25.49L45.0806 25.49" stroke="#141414" stroke-linecap="round" stroke-linejoin="round"/>
<path id="Vector_4" d="M48.4863 31.1658L45.0806 31.1658" stroke="#141414" stroke-linecap="round" stroke-linejoin="round"/>
</g>
</g>
<path id="Vector_5" d="M55.2976 28.8958L55.2976 38.553" stroke="#1C1F35" stroke-linecap="round" stroke-linejoin="round"/>
<path id="Vector_6" d="M6.71961 22.6299C5.84388 21.4757 3.68521 17.6353 5.35522 10.4204" stroke="#1C1F35" stroke-width="1.5" stroke-linecap="round" stroke-linejoin="round"/>
<path id="Vector_7" d="M35.2446 16.6855C35.1963 17.8459 34.555 21.3296 29.708 25.0129" stroke="#1C1F35" stroke-linecap="round" stroke-linejoin="round"/>
</g>
</g>
</svg>
