<svg width="52" height="59" viewBox="0 0 52 59" fill="none" xmlns="http://www.w3.org/2000/svg">
<g id="Icon">
<path id="Vector" d="M4.83325 41.7503V14.917" stroke="black" stroke-width="2" stroke-linecap="round" stroke-linejoin="round"/>
<path id="Vector_2" d="M43.1666 14.917V41.7503" stroke="black" stroke-width="2" stroke-linecap="round" stroke-linejoin="round"/>
<path id="Vector_3" d="M16.3334 28.334V32.1673" stroke="black" stroke-width="2" stroke-linecap="round" stroke-linejoin="round"/>
<path id="Vector_4" d="M24 26.4172V32.1672" stroke="black" stroke-width="2" stroke-linecap="round" stroke-linejoin="round"/>
<path id="Vector_5" d="M31.6666 24.5005V32.1671" stroke="black" stroke-width="2" stroke-linecap="round" stroke-linejoin="round"/>
<path id="Vector_6" d="M45.0833 7.25049H2.91666C1.85812 7.25049 1 8.10861 1 9.16715V13.0005C1 14.059 1.85812 14.9171 2.91666 14.9171H45.0833C46.1418 14.9171 46.9999 14.059 46.9999 13.0005V9.16715C46.9999 8.10861 46.1418 7.25049 45.0833 7.25049Z" stroke="black" stroke-width="2" stroke-linecap="round" stroke-linejoin="round"/>
<path id="Vector_7" d="M45.0833 7.25049H2.91666C1.85812 7.25049 1 8.10861 1 9.16715V13.0005C1 14.059 1.85812 14.9171 2.91666 14.9171H45.0833C46.1418 14.9171 46.9999 14.059 46.9999 13.0005V9.16715C46.9999 8.10861 46.1418 7.25049 45.0833 7.25049Z" fill="#FABA20" stroke="black" stroke-width="2" stroke-linecap="round" stroke-linejoin="round"/>
<path id="Vector_8" d="M17.4001 57.2953C15.5972 55.9855 14.7879 52.8173 16.8134 50.2052" stroke="#1C1F35" stroke-width="1.5" stroke-linecap="round" stroke-linejoin="round"/>
<path id="Vector_9" d="M0.999878 1.00049H21.9999" stroke="#1C1F35" stroke-width="2" stroke-linecap="round" stroke-linejoin="round"/>
<path id="Vector_10" d="M50.9999 18.0005L50.9999 28.0005" stroke="#1C1F35" stroke-width="2" stroke-linecap="round" stroke-linejoin="round"/>
<path id="Vector_11" d="M24 41.7505V49.4171" stroke="black" stroke-width="2" stroke-linecap="round" stroke-linejoin="round"/>
<path id="Vector_12" d="M24 57.0839C26.117 57.0839 27.8333 55.3677 27.8333 53.2506C27.8333 51.1335 26.117 49.4172 24 49.4172C21.8829 49.4172 20.1666 51.1335 20.1666 53.2506C20.1666 55.3677 21.8829 57.0839 24 57.0839Z" fill="#FABA20" stroke="black" stroke-width="2" stroke-linecap="round" stroke-linejoin="round"/>
<path id="Vector_13" d="M1 41.7505H46.9999" stroke="black" stroke-width="2" stroke-linecap="round" stroke-linejoin="round"/>
</g>
</svg>
