<svg width="70" height="69" viewBox="0 0 70 69" fill="none" xmlns="http://www.w3.org/2000/svg">
<g clip-path="url(#clip0_287_613)">
<path fill-rule="evenodd" clip-rule="evenodd" d="M29.3945 67.6529H36.709V49.4595H58.584V67.6529H65.8984V66.9791V40.2281H29.3945V67.6529Z" fill="#FABA20"/>
<path fill-rule="evenodd" clip-rule="evenodd" d="M4.10156 11.4556H13.6719V18.1939H4.10156V11.4556Z" fill="#FABA20"/>
<path fill-rule="evenodd" clip-rule="evenodd" d="M29.3945 17.5202H38.9648V24.2585H29.3945V17.5202Z" fill="#FABA20"/>
<path d="M68.6328 66.3052H67.2656V34.1636C67.2656 33.4193 66.6535 32.816 65.8984 32.816H40.332V7.41266C40.332 6.66835 39.7199 6.065 38.9648 6.065H29.3945C28.6394 6.065 28.0273 6.66835 28.0273 7.41266V32.816H15.0391V1.34821C15.0391 0.603895 14.427 0.000549316 13.6719 0.000549316H4.10156C3.34646 0.000549316 2.73438 0.603895 2.73438 1.34821V66.3052H1.36719C0.61209 66.3052 0 66.9086 0 67.6529C0 68.3972 0.61209 69.0005 1.36719 69.0005H68.6328C69.3879 69.0005 70 68.3972 70 67.6529C70 66.9086 69.3879 66.3052 68.6328 66.3052ZM30.7617 8.76031H37.5977V32.816H30.7617V8.76031ZM64.5312 35.5113V66.3052H59.9512V49.4595C59.9512 48.7152 59.3391 48.1119 58.584 48.1119H36.709C35.9539 48.1119 35.3418 48.7152 35.3418 49.4595V66.3052H15.0391V35.5113H64.5312ZM38.0762 56.8716H57.2168V60.2408H38.0762V56.8716ZM57.2168 54.1763H38.0762V50.8072H57.2168V54.1763ZM38.0762 62.9361H57.2168V66.3052H38.0762V62.9361ZM5.46875 2.69586H12.3047V66.3052H5.46875V2.69586Z" fill="#212B59"/>
</g>
<defs>
<clipPath id="clip0_287_613">
<rect width="70" height="69" fill="white" transform="translate(0 0.000549316)"/>
</clipPath>
</defs>
</svg>
