<svg width="70" height="69" viewBox="0 0 70 69" fill="none" xmlns="http://www.w3.org/2000/svg">
<g clip-path="url(#clip0_287_632)">
<path fill-rule="evenodd" clip-rule="evenodd" d="M49.9591 19.5415H68.1524V1.34821H62.088V8.76029L59.0558 7.41264L56.0235 8.76029V1.34821H49.9591V19.5415Z" fill="#FABA20"/>
<path fill-rule="evenodd" clip-rule="evenodd" d="M44.0966 43.5972V25.4039H38.0322V32.816L35 31.4684L31.9678 32.816V25.4039H25.9033V43.5972H44.0966Z" fill="#FABA20"/>
<path fill-rule="evenodd" clip-rule="evenodd" d="M20.0409 67.6529V49.4596H13.9765V56.8717L10.9443 55.524L7.91209 56.8717V49.4596H1.84766V67.6529H20.0409Z" fill="#FABA20"/>
<path d="M44.0966 0.000549316H25.9033C25.159 0.000549316 24.5557 0.603893 24.5557 1.3482V19.5415C24.5557 20.2858 25.159 20.8891 25.9033 20.8891H44.0966C44.8409 20.8891 45.4443 20.2858 45.4443 19.5415V1.3482C45.4443 0.603893 44.8409 0.000549316 44.0966 0.000549316ZM33.3154 2.69585H36.6845V6.68665L35.5474 6.18115C35.1989 6.0263 34.8012 6.0263 34.4527 6.18115L33.3155 6.68665L33.3154 2.69585ZM42.749 18.1938H27.251V2.69585H30.6201V8.76028C30.6201 9.21646 30.8508 9.64178 31.2334 9.89029C31.616 10.1391 32.0982 10.1769 32.5152 9.99176L35 8.88736L37.4848 9.99176C37.6597 10.0695 37.8462 10.1079 38.032 10.1079C38.2889 10.1079 38.5446 10.0346 38.7665 9.89029C39.149 9.64178 39.3798 9.21646 39.3798 8.76028V2.69585H42.749V18.1938Z" fill="#212B59"/>
<path d="M55.289 9.89029C55.6716 10.1391 56.1538 10.1769 56.5707 9.99176L59.0555 8.88736L61.5403 9.99176C61.7152 10.0695 61.9018 10.1079 62.0876 10.1079C62.3445 10.1079 62.6001 10.0345 62.8221 9.89029C63.2045 9.64178 63.4354 9.21646 63.4354 8.76028V1.3482C63.4354 0.603893 62.832 0.000549316 62.0877 0.000549316H56.0233C55.279 0.000549316 54.6757 0.603893 54.6757 1.3482V8.76028C54.6758 9.21659 54.9065 9.64178 55.289 9.89029ZM57.3711 2.69585H60.7402V6.68651L59.6031 6.18115C59.4287 6.10366 59.2422 6.06498 59.0557 6.06498C58.8691 6.06498 58.6825 6.10366 58.5082 6.18115L57.3711 6.68651V2.69585Z" fill="#212B59"/>
<path d="M20.0409 24.0563H1.84765C1.10334 24.0563 0.5 24.6596 0.5 25.4039V43.5972C0.5 44.3415 1.10334 44.9449 1.84765 44.9449H20.0409C20.7852 44.9449 21.3886 44.3415 21.3886 43.5972V25.4039C21.3886 24.6598 20.7852 24.0563 20.0409 24.0563ZM9.25973 26.7516H12.6289V30.7422L11.4917 30.2369C11.1432 30.082 10.7455 30.082 10.397 30.2369L9.25973 30.7424V26.7516ZM18.6933 42.2496H3.1953V26.7516H6.56443V32.816C6.56443 33.2722 6.79515 33.6975 7.17774 33.946C7.56048 34.1948 8.04253 34.2328 8.4595 34.0475L10.9443 32.9431L13.4291 34.0475C13.604 34.1252 13.7905 34.1637 13.9764 34.1637C14.2332 34.1637 14.4889 34.0902 14.7108 33.946C15.0933 33.6975 15.3242 33.2722 15.3242 32.816V26.7516H18.6933V42.2496Z" fill="#212B59"/>
<path d="M32.5152 34.0476L35 32.9432L37.4848 34.0476C37.6597 34.1254 37.8462 34.1638 38.0321 34.1638C38.2889 34.1638 38.5446 34.0903 38.7665 33.9461C39.149 33.6976 39.3798 33.2723 39.3798 32.8161V25.404C39.3798 24.6597 38.7765 24.0564 38.0322 24.0564H31.9678C31.2235 24.0564 30.6201 24.6597 30.6201 25.404V32.8161C30.6201 33.2723 30.8508 33.6976 31.2334 33.9461C31.616 34.1948 32.0982 34.2329 32.5152 34.0476ZM33.3154 26.7516H36.6845V30.7422L35.5474 30.2369C35.3731 30.1594 35.1866 30.1207 35 30.1207C34.8133 30.1207 34.6268 30.1594 34.4526 30.2369L33.3154 30.7422V26.7516Z" fill="#212B59"/>
<path d="M68.1524 24.0563H49.9591C49.2148 24.0563 48.6115 24.6596 48.6115 25.4039V43.5972C48.6115 44.3415 49.2148 44.9449 49.9591 44.9449H68.1524C68.8967 44.9449 69.5 44.3415 69.5 43.5972V25.4039C69.5 24.6598 68.8967 24.0563 68.1524 24.0563ZM57.3712 26.7516H60.7403V30.7422L59.6032 30.2369C59.2547 30.082 58.857 30.082 58.5085 30.2369L57.3713 30.7422L57.3712 26.7516ZM66.8047 42.2496H51.3068V26.7516H54.6759V32.816C54.6759 33.2722 54.9066 33.6975 55.2892 33.946C55.6718 34.1948 56.154 34.2328 56.5709 34.0475L59.0557 32.9431L61.5405 34.0475C61.7155 34.1252 61.902 34.1637 62.0878 34.1637C62.3447 34.1637 62.6003 34.0902 62.8223 33.946C63.2048 33.6975 63.4356 33.2722 63.4356 32.816V26.7516H66.8047V42.2496Z" fill="#212B59"/>
<path d="M13.9765 48.1119H7.9121C7.1678 48.1119 6.56445 48.7153 6.56445 49.4596V56.8717C6.56445 57.3278 6.79517 57.7532 7.17777 58.0017C7.5605 58.2504 8.04256 58.2885 8.45952 58.1032L10.9443 56.9988L13.4291 58.1032C13.604 58.1809 13.7906 58.2193 13.9764 58.2193C14.2333 58.2193 14.4889 58.1459 14.7109 58.0017C15.0933 57.7532 15.3242 57.3278 15.3242 56.8717V49.4596C15.3242 48.7153 14.7208 48.1119 13.9765 48.1119ZM12.6289 54.7979L11.4917 54.2925C11.3175 54.215 11.131 54.1764 10.9443 54.1764C10.7577 54.1764 10.5712 54.215 10.3969 54.2925L9.25976 54.7979V50.8072H12.6289V54.7979Z" fill="#212B59"/>
<path d="M44.0966 48.1119H25.9033C25.159 48.1119 24.5557 48.7153 24.5557 49.4596V67.6529C24.5557 68.3972 25.159 69.0005 25.9033 69.0005H44.0966C44.8409 69.0005 45.4443 68.3972 45.4443 67.6529V49.4596C45.4443 48.7153 44.8409 48.1119 44.0966 48.1119ZM33.3154 50.8072H36.6845V54.7979L35.5474 54.2925C35.1989 54.1377 34.8012 54.1377 34.4527 54.2925L33.3155 54.7979L33.3154 50.8072ZM42.749 66.3052H27.251V50.8072H30.6201V56.8717C30.6201 57.3278 30.8508 57.7532 31.2334 58.0017C31.616 58.2504 32.0982 58.2885 32.5152 58.1032L35 56.9988L37.4848 58.1032C37.6597 58.1809 37.8462 58.2193 38.032 58.2193C38.2889 58.2193 38.5446 58.1459 38.7665 58.0017C39.149 57.7532 39.3798 57.3278 39.3798 56.8717V50.8072H42.749V66.3052Z" fill="#212B59"/>
<path d="M68.1524 48.1119H49.9591C49.2148 48.1119 48.6115 48.7153 48.6115 49.4596V67.6529C48.6115 68.3972 49.2148 69.0005 49.9591 69.0005H68.1524C68.8967 69.0005 69.5 68.3972 69.5 67.6529V49.4596C69.5 48.7153 68.8967 48.1119 68.1524 48.1119ZM57.3712 50.8072H60.7403V54.7979L59.6032 54.2925C59.2547 54.1377 58.857 54.1377 58.5085 54.2925L57.3713 54.7979L57.3712 50.8072ZM66.8047 66.3052H51.3068V50.8072H54.6759V56.8717C54.6759 57.3278 54.9066 57.7532 55.2892 58.0017C55.6718 58.2504 56.154 58.2885 56.5709 58.1032L59.0557 56.9988L61.5405 58.1032C61.7155 58.1809 61.902 58.2193 62.0878 58.2193C62.3447 58.2193 62.6003 58.1459 62.8223 58.0017C63.2048 57.7532 63.4356 57.3278 63.4356 56.8717V50.8072H66.8047V66.3052Z" fill="#212B59"/>
<path d="M9.99139 20.4945C10.2441 20.7472 10.5869 20.8891 10.9443 20.8891C11.3017 20.8891 11.6446 20.7471 11.8972 20.4944L17.3552 15.0363C17.8815 14.51 17.8815 13.6567 17.3552 13.1304C16.829 12.6042 15.9756 12.6042 15.4494 13.1304L12.292 16.288V1.3482C12.292 0.603893 11.6886 0.000549316 10.9443 0.000549316C10.2 0.000549316 9.59666 0.603893 9.59666 1.3482V16.288L6.43939 13.1306C5.91299 12.6043 5.0598 12.6043 4.53354 13.1306C4.00728 13.6568 4.00715 14.5102 4.53354 15.0364L9.99139 20.4945Z" fill="#212B59"/>
</g>
<defs>
<clipPath id="clip0_287_632">
<rect width="69" height="69" fill="white" transform="translate(0.5 0.000549316)"/>
</clipPath>
</defs>
</svg>
