<svg width="70" height="69" viewBox="0 0 70 69" fill="none" xmlns="http://www.w3.org/2000/svg">
<g clip-path="url(#clip0_287_623)">
<path fill-rule="evenodd" clip-rule="evenodd" d="M22.1321 5.99589C29.2388 -1.11085 40.7611 -1.11085 47.8678 5.99589C57.9354 15.8583 52.8892 33.4427 39.2589 36.5581C38.2508 38.3055 37.2428 40.0527 36.2341 41.7999C35.7062 42.7429 34.3291 42.7743 33.7743 41.8166C32.7618 40.0628 31.7508 38.3105 30.7397 36.5578C17.1073 33.4399 12.0664 15.8563 22.1321 5.99589Z" fill="#FABA20"/>
<path d="M68.1605 62.9432H64.1166V49.4633H68.1605C69.9471 49.397 69.9457 46.8331 68.1605 46.7673H64.1166V45.4193C64.1166 44.675 63.513 44.0714 62.7686 44.0714H51.9847C51.2404 44.0714 50.6367 44.675 50.6367 45.4193V46.7673H19.3633V45.4193C19.3633 44.675 18.7598 44.0714 18.0154 44.0714H7.23143C6.48693 44.0714 5.88344 44.675 5.88344 45.4193V46.7673H1.83946C0.0528379 46.8337 0.0541858 49.3977 1.83946 49.4633H5.88344V62.9432H1.83946C0.0528379 63.0095 0.0541858 65.5736 1.83946 65.6392H5.88344V66.9872C5.88344 67.7316 6.48693 68.3352 7.23143 68.3352H18.0154C18.7598 68.3352 19.3633 67.7316 19.3633 66.9872V65.6392H50.6367V66.9872C50.6367 67.7316 51.2404 68.3352 51.9847 68.3352H62.7686C63.513 68.3352 64.1166 67.7316 64.1166 66.9872V65.6392H68.1605C69.9471 65.5729 69.9457 63.009 68.1605 62.9432ZM16.6675 65.6392H8.57955V61.5952H11.9495C13.7362 61.5289 13.7348 58.9649 11.9495 58.8992H8.57955V53.5073H11.9495C13.7362 53.441 13.7348 50.877 11.9495 50.8113H8.57955V46.7673H16.6675V65.6392ZM19.3635 62.9432V49.4633H50.6369V62.9432H19.3635ZM53.3327 65.6392V46.7673H61.4207V50.8113H58.0507C56.264 50.8776 56.2654 53.4415 58.0507 53.5073H61.4207V58.8992H58.0507C56.264 58.9656 56.2654 61.5294 58.0507 61.5952H61.4207V65.6392H53.3327Z" fill="#212B59"/>
<path d="M28.9823 20.7814L27.9956 21.3512L26.3347 20.3924C24.758 19.5537 23.4728 21.7825 24.9867 22.7271L26.6476 23.686V25.6037C26.7139 27.3904 29.2779 27.389 29.3436 25.6037V23.686L30.3303 23.1162L33.6519 25.034V26.1734L31.9912 27.1322C31.3464 27.5045 31.1255 28.3288 31.4978 28.9736C31.8698 29.6182 32.6943 29.8393 33.3391 29.467L34.9999 28.5081L36.6607 29.467C37.294 29.8359 38.1277 29.6243 38.5021 28.9736C38.8744 28.3288 38.6535 27.5044 38.0087 27.1322L36.348 26.1734V25.0338L39.6696 23.116L40.6563 23.6858V25.6036C40.7226 27.3902 43.2865 27.3889 43.3523 25.6036V23.6858L45.013 22.727C45.6578 22.3547 45.8787 21.5304 45.5064 20.8856C45.1341 20.2412 44.3098 20.02 43.665 20.3923L42.0043 21.3511L41.0176 20.7813V16.9459L42.0043 16.3761L43.665 17.3349C44.2984 17.7038 45.1319 17.4922 45.5064 16.8415C45.8787 16.1968 45.6578 15.3725 45.013 15.0002L43.3523 14.0414V12.1237C43.286 10.3371 40.7221 10.3384 40.6563 12.1237V14.0415L39.6696 14.6113L36.348 12.6935V11.5539L38.0087 10.5951C38.6535 10.2229 38.8744 9.39848 38.5021 8.75373C38.1299 8.10912 37.3059 7.88819 36.6607 8.26037L34.9999 9.21919L33.3391 8.26037C32.6947 7.88832 31.8701 8.10912 31.4978 8.75373C31.1255 9.39848 31.3464 10.2228 31.9912 10.5951L33.6519 11.5539V12.6934L30.3303 14.6112L29.3436 14.0414V12.1237C29.2772 10.3371 26.7132 10.3384 26.6476 12.1237V14.0415L24.9867 15.0003C24.342 15.3725 24.121 16.1969 24.4934 16.8417C24.8677 17.4923 25.7014 17.704 26.3347 17.335L27.9956 16.3762L28.9823 16.946V20.7814ZM35 15.0282L38.3216 16.946V20.7814L35 22.6992L31.6784 20.7814V16.946L35 15.0282Z" fill="#212B59"/>
</g>
<defs>
<clipPath id="clip0_287_623">
<rect width="69" height="69" fill="white" transform="translate(0.5 0.000549316)"/>
</clipPath>
</defs>
</svg>
