<svg width="56" height="58" viewBox="0 0 56 58" fill="none" xmlns="http://www.w3.org/2000/svg">
<g id="Icon">
<g id="Icon_2">
<path id="Vector 3" d="M39.0753 16.0427V6.07837H44.6721C47.5067 6.07837 50.0614 7.78778 51.1427 10.408L53.1831 15.3519C53.3189 15.681 53.077 16.0427 52.7209 16.0427H39.0753Z" fill="#FABA20" stroke="#1C1F35" stroke-width="2"/>
<path id="Vector" d="M1.4325 22.686H39.0754" stroke="#1C1F35" stroke-width="2" stroke-linecap="round" stroke-linejoin="round"/>
<path id="Vector_2" d="M42.3968 40.3995C46.0655 40.3995 49.0396 37.4254 49.0396 33.7566C49.0396 30.0879 46.0655 27.1138 42.3968 27.1138C38.728 27.1138 35.7539 30.0879 35.7539 33.7566C35.7539 37.4254 38.728 40.3995 42.3968 40.3995Z" stroke="#1C1F35" stroke-width="2" stroke-linecap="round" stroke-linejoin="round"/>
<path id="Vector_3" d="M13.6111 40.3995C17.2799 40.3995 20.254 37.4254 20.254 33.7566C20.254 30.0879 17.2799 27.1138 13.6111 27.1138C9.94237 27.1138 6.96826 30.0879 6.96826 33.7566C6.96826 37.4254 9.94237 40.3995 13.6111 40.3995Z" fill="#FABA20" stroke="#1C1F35" stroke-width="2" stroke-linecap="round" stroke-linejoin="round"/>
<path id="Vector_4" d="M35.7539 32.6499H20.2539" stroke="#1C1F35" stroke-width="2" stroke-linecap="round" stroke-linejoin="round"/>
<path id="Vector_5" d="M6.91285 32.6499H3.31464C2.81546 32.6499 2.33673 32.4458 1.98376 32.0824C1.63079 31.7191 1.4325 31.2263 1.4325 30.7124V3.5874C1.4325 3.07355 1.63079 2.58074 1.98376 2.21738C2.33673 1.85403 2.81546 1.6499 3.31464 1.6499H39.0754V27.6124" stroke="#1C1F35" stroke-width="2" stroke-linecap="round" stroke-linejoin="round"/>
<path id="Vector_6" d="M39.0754 16.0425H54.5754V30.8044C54.5754 31.2938 54.3713 31.7631 54.008 32.1092C53.6446 32.4552 53.1518 32.6496 52.6379 32.6496H48.9013" stroke="#1C1F35" stroke-width="2" stroke-linecap="round" stroke-linejoin="round"/>
<path id="Vector_7" d="M5.86108 15.3516L5.86108 6.07837" stroke="#1C1F35" stroke-width="2" stroke-linecap="round" stroke-linejoin="round"/>
<path id="Vector_8" d="M25.7897 18.2573L35.0629 18.2573" stroke="#1C1F35" stroke-width="2" stroke-linecap="round" stroke-linejoin="round"/>
<path id="Vector_9" d="M25.7897 36.9714L29.1111 36.9714" stroke="#1C1F35" stroke-width="2" stroke-linecap="round" stroke-linejoin="round"/>
</g>
</g>
</svg>
