<svg width="57" height="58" viewBox="0 0 57 58" fill="none" xmlns="http://www.w3.org/2000/svg">
<g id="Icon">
<g id="Icon_2">
<path id="Vector" d="M2.05151 45.6499H54.4325" stroke="#141414" stroke-width="2" stroke-linecap="round" stroke-linejoin="round"/>
<path id="Vector_2" d="M32.4326 45.6499V3.56295C32.4326 3.05558 32.2276 2.56899 31.8627 2.21022C31.4978 1.85145 31.003 1.6499 30.487 1.6499H7.14004C6.62404 1.6499 6.12917 1.85145 5.76431 2.21022C5.39944 2.56899 5.19446 3.05558 5.19446 3.56295V45.6499" stroke="#141414" stroke-width="2" stroke-linecap="round" stroke-linejoin="round"/>
<path id="Rectangle 19" d="M32.4325 14.2214H48.2896C49.9465 14.2214 51.2896 15.5646 51.2896 17.2214V44.6024H32.4325V14.2214Z" fill="#FABA20" stroke="#141414" stroke-width="2" stroke-linecap="round" stroke-linejoin="round"/>
<path id="Vector_3" d="M13.5753 11.0784H20.9087" stroke="#141414" stroke-width="2" stroke-linecap="round" stroke-linejoin="round"/>
<path id="Vector_4" d="M1.00391 41.4595L1.00391 26.7928" stroke="#141414" stroke-width="2" stroke-linecap="round" stroke-linejoin="round"/>
<path id="Vector_5" d="M55.48 30.9829L55.48 16.3162" stroke="#141414" stroke-width="2" stroke-linecap="round" stroke-linejoin="round"/>
<path id="Vector_6" d="M35.5753 10.0308L42.9087 10.0308" stroke="#141414" stroke-width="2" stroke-linecap="round" stroke-linejoin="round"/>
<path id="Vector_7" d="M16.7183 26.7925H24.0516" stroke="#141414" stroke-width="2" stroke-linecap="round" stroke-linejoin="round"/>
<path id="Vector_8" d="M13.5753 36.2214H20.9087" stroke="#141414" stroke-width="2" stroke-linecap="round" stroke-linejoin="round"/>
<path id="Vector_9" d="M39.7659 36.2214H43.9563" stroke="#141414" stroke-width="2" stroke-linecap="round" stroke-linejoin="round"/>
<path id="Vector_10" d="M39.7659 26.7925H43.9563" stroke="#141414" stroke-width="2" stroke-linecap="round" stroke-linejoin="round"/>
</g>
</g>
</svg>
