<svg width="203" height="50" viewBox="0 0 203 50" fill="none" xmlns="http://www.w3.org/2000/svg">
<path fill-rule="evenodd" clip-rule="evenodd" d="M0 11.405L21.9678 0L44.1716 11.405L21.9678 22.8387L0 11.405ZM131.879 16.9431V16.6677C131.879 12.9147 134.087 11.7111 137.805 11.9777V5.1155C128.897 4.5725 124.675 9.0354 124.675 16.6677V16.9431H120.647V23.8063H124.675V44.5804H131.879V23.8063H140.168V44.5804H147.372V23.8063H153.298V16.9431H147.372V16.6677C147.372 12.9147 149.541 11.7111 153.298 11.9777V5.1155C144.39 4.5725 140.168 9.0354 140.168 16.6677V16.9431H131.879ZM81.527 24.458C83.811 22.6412 85.205 20.0444 85.205 16.7072C85.205 10.2389 79.938 5.8166 73.315 5.8166H57.937V44.5014H74.554C81.332 44.5014 86.755 39.9299 86.755 33.3047C86.678 29.3059 84.663 26.2441 81.527 24.458ZM73.353 12.9848C75.832 12.9848 77.537 14.8104 77.537 17.2502C77.537 19.6979 75.754 21.5146 73.353 21.5146H65.646V12.9848H73.353ZM74.515 37.4122H65.646V28.2978H74.515C77.15 28.2978 79.047 30.233 79.047 32.8298C79.047 35.4671 77.15 37.4122 74.515 37.4122ZM109.22 16.9036V31.8237C109.22 36.6321 106.587 38.6859 103.062 38.6859C99.808 38.6859 97.523 36.7506 97.523 32.9878V16.9036H90.318V33.8774C90.318 41.2431 94.928 45.3209 100.893 45.3209C104.65 45.3209 107.554 43.9189 109.182 41.4406V44.5409H116.385V16.9036H109.22ZM183.161 33.6493H162.091C163.137 37.2937 166.157 38.8438 169.915 38.8438C172.742 38.8438 174.989 37.6778 176.19 36.0891L182 39.3869C179.405 43.1477 175.221 45.3209 169.837 45.3209C160.464 45.3209 154.538 38.9623 154.538 30.708C154.538 22.4437 160.503 16.0841 169.295 16.0841C177.546 16.0841 183.433 22.5622 183.433 30.708C183.433 31.7842 183.317 32.7222 183.161 33.6493ZM169.295 22.5622C165.423 22.5622 162.787 24.6159 161.974 28.1398H176.228C175.337 24.1519 172.316 22.5622 169.295 22.5622ZM193.852 21.6726V16.9036H186.648V44.5409H193.852V31.3201C193.852 25.5036 198.578 23.8458 202.334 24.3089V16.3616C198.81 16.3616 195.285 17.9117 193.852 21.6726ZM21.9678 42.3983L6.9807 34.2526L0 38.0342L21.9678 49.9615L44.1716 38.0342L37.112 34.2526L21.9678 42.3983ZM6.9807 21.407L21.9678 28.7915L37.112 21.407L44.1716 24.8529L21.9678 35.6843L0 24.8529L6.9807 21.407Z" fill="#666666"/>
</svg>
